<svg width="500" height="500" viewBox="0 0 500 500" fill="none" xmlns="http://www.w3.org/2000/svg">
<g clip-path="url(#clip0_195_32)">
<rect width="500" height="500" fill="#6E24FF"/>
<path fill-rule="evenodd" clip-rule="evenodd" d="M132.813 341.699H367.188C335.216 305.946 319.231 256.369 319.231 192.968C319.231 186.89 317.788 180.633 314.904 174.198C312.019 167.762 307.873 161.625 302.464 155.785C297.055 149.945 289.754 145.149 280.559 141.394C271.364 137.64 261.178 135.763 250 135.763C238.822 135.763 228.636 137.64 219.441 141.394C210.246 145.149 202.945 149.945 197.536 155.785C192.127 161.625 187.981 167.762 185.096 174.198C182.212 180.633 180.769 186.89 180.769 192.968C180.769 256.369 164.784 305.946 132.813 341.699ZM400 341.699C400 347.896 397.716 353.259 393.149 357.788C388.582 362.316 383.173 364.581 376.923 364.581H296.154C296.154 377.213 291.647 387.999 282.632 396.937C273.618 405.875 262.74 410.344 250 410.344C237.26 410.344 226.382 405.875 217.368 396.937C208.353 387.999 203.846 377.213 203.846 364.581H123.077C116.827 364.581 111.418 362.316 106.851 357.788C102.284 353.259 100 347.896 100 341.699C106.01 336.693 111.478 331.45 116.406 325.968C121.334 320.486 126.442 313.365 131.731 304.605C137.019 295.846 141.496 286.401 145.162 276.271C148.828 266.142 151.833 253.866 154.177 239.446C156.52 225.026 157.692 209.533 157.692 192.968C157.692 174.853 164.724 158.019 178.786 142.467C192.849 126.915 211.298 117.47 234.135 114.133C233.173 111.869 232.692 109.545 232.692 107.161C232.692 102.394 234.375 98.3423 237.74 95.0054C241.106 91.6685 245.192 90 250 90C254.808 90 258.894 91.6685 262.26 95.0054C265.625 98.3423 267.308 102.394 267.308 107.161C267.308 109.545 266.827 111.869 265.865 114.133C288.702 117.47 307.151 126.915 321.214 142.467C335.276 158.019 342.308 174.853 342.308 192.968C342.308 209.533 343.48 225.026 345.823 239.446C348.167 253.866 351.172 266.142 354.838 276.271C358.504 286.401 362.981 295.846 368.269 304.605C373.558 313.365 378.666 320.486 383.594 325.968C388.522 331.45 393.99 336.693 400 341.699ZM221.154 361.72C223.077 361.72 224.038 362.674 224.038 364.581C224.038 371.612 226.593 377.66 231.701 382.725C236.809 387.79 242.909 390.322 250 390.322C251.923 390.322 252.885 391.276 252.885 393.183C252.885 395.09 251.923 396.043 250 396.043C241.226 396.043 233.744 392.974 227.554 386.837C221.364 380.699 218.269 373.28 218.269 364.581C218.269 362.674 219.231 361.72 221.154 361.72ZM272.31 155.599C281.085 155.599 288.566 158.668 294.756 164.805C300.946 170.943 304.041 178.361 304.041 187.061C304.041 188.968 303.08 189.921 301.157 189.921C299.234 189.921 298.272 188.968 298.272 187.061C298.272 180.03 295.718 173.982 290.61 168.917C285.502 163.852 279.402 161.319 272.31 161.319C270.387 161.319 269.426 160.366 269.426 158.459C269.426 156.552 270.387 155.599 272.31 155.599Z" fill="#FFC600"/>
</g>
<defs>
<clipPath id="clip0_195_32">
<rect width="500" height="500" fill="white"/>
</clipPath>
</defs>
</svg>
